grf
inDegrees=no
nColumns=19
nRows=103
DataType=double
version=3
OpenSimVersion=4.3-2021-08-27-4bc7ad9
endheader
time	ground_force_r_vx	ground_force_r_vy	ground_force_r_vz	ground_force_r_px	ground_force_r_py	ground_force_r_pz	ground_torque_r_x	ground_torque_r_y	ground_torque_r_z	ground_force_l_vx	ground_force_l_vy	ground_force_l_vz	ground_force_l_px	ground_force_l_py	ground_force_l_pz	ground_torque_l_x	ground_torque_l_y	ground_torque_l_z
0.324	0	0	0	0	0	0	0	0	0	0	0	0	0	0	0	0	0	0
0.325	0	0	0	0	0	0	0	0	0	0	0	0	0	0	0	0	0	0
0.326	0	0	0	0	0	0	0	0	0	0	0	0	0	0	0	0	0	0
0.327	0	0	0	0	0	0	0	0	0	0	0	0	0	0	0	0	0	0
0.328	0	0	0	0	0	0	0	0	0	0	0	0	0	0	0	0	0	0
0.329	0	0	0	0	0	0	0	0	0	0	0	0	0	0	0	0	0	0
0.33	0	0	0	0	0	0	0	0	0	0	0	0	0	0	0	0	0	0
0.331	0	0	0	0	0	0	0	0	0	0	0	0	0	0	0	0	0	0
0.332	0	0	0	0	0	0	0	0	0	0	0	0	0	0	0	0	0	0
0.333	0	0	0	0	0	0	0	0	0	0	0	0	0	0	0	0	0	0
0.334	0	0	0	0	0	0	0	0	0	0	0	0	0	0	0	0	0	0
0.335	0	0	0	0	0	0	0	0	0	0	0	0	0	0	0	0	0	0
0.336	0	0	0	0	0	0	0	0	0	0	0	0	0	0	0	0	0	0
0.337	0	0	0	0	0	0	0	0	0	0	0	0	0	0	0	0	0	0
0.338	0	0	0	0	0	0	0	0	0	0	0	0	0	0	0	0	0	0
0.339	0	0	0	0	0	0	0	0	0	0	0	0	0	0	0	0	0	0
0.34	0	0	0	0	0	0	0	0	0	0	0	0	0	0	0	0	0	0
0.341	0	0	0	0	0	0	0	0	0	0	0	0	0	0	0	0	0	0
0.342	0	0	0	0	0	0	0	0	0	0	0	0	0	0	0	0	0	0
0.343	0	0	0	0	0	0	0	0	0	0	0	0	0	0	0	0	0	0
0.344	0	0	0	0	0	0	0	0	0	0	0	0	0	0	0	0	0	0
0.345	0	0	0	0	0	0	0	0	0	0	0	0	0	0	0	0	0	0
0.346	0	0	0	0	0	0	0	0	0	0	0	0	0	0	0	0	0	0
0.347	0	0	0	0	0	0	0	0	0	0	0	0	0	0	0	0	0	0
0.348	0	0	0	0	0	0	0	0	0	0	0	0	0	0	0	0	0	0
0.349	0	0	0	0	0	0	0	0	0	0	0	0	0	0	0	0	0	0
0.35	0	0	0	0	0	0	0	0	0	0	0	0	0	0	0	0	0	0
0.351	0	0	0	0	0	0	0	0	0	0	0	0	0	0	0	0	0	0
0.352	0	0	0	0	0	0	0	0	0	0	0	0	0	0	0	0	0	0
0.353	0	0	0	0	0	0	0	0	0	0	0	0	0	0	0	0	0	0
0.354	0	0	0	0	0	0	0	0	0	0	0	0	0	0	0	0	0	0
0.355	0	0	0	0	0	0	0	0	0	0	0	0	0	0	0	0	0	0
0.356	0	0	0	0	0	0	0	0	0	0	0	0	0	0	0	0	0	0
0.357	0	0	0	0	0	0	0	0	0	0	0	0	0	0	0	0	0	0
0.358	0	0	0	0	0	0	0	0	0	0	0	0	0	0	0	0	0	0
0.359	-13.72656051	29.71575912	0	-2.26165991	0	0	0.03156856	0.03677648	0	0	0	0	0	0	0	0	0	0
0.36	-24.23158387	48.50537452	0	-2.26597457	0	0	0.07680817	-0.00391354	0	0	0	0	0	0	0	0	0	0
0.361	-38.93609647	74.12562321999999	0	-2.2712764	0	0	0.14248775	-0.08338930999999999	0	0	0	0	0	0	0	0	0	0
0.362	-58.64638634	108.16243637	0	-2.27727905	0	0	0.23040819	-0.20971069	0	0	0	0	0	0	0	0	0	0
0.363	-84.06875597	151.7251126	0	-2.28357397	0	0	0.34122751	-0.38602788	0	0	0	0	0	0	0	0	0	0
0.364	-116.11887941	206.06278075	0	-2.28980476	0	0	0.47535079	-0.61310714	0	0	0	0	0	0	0	0	0	0
0.365	-155.08887479	271.50938486	0	-2.29564893	0	0	0.63305385	-0.89007024	0	0	0	0	0	0	0	0	0	0
0.366	-201.04071076	348.44316409	0	-2.30086019	0	0	0.82270029	-1.23205629	0	0	0	0	0	0	0	0	0	0
0.367	-252.91381472	436.0499966	0	-2.30529465	0	0	1.06013629	-1.67090551	0	0	0	0	0	0	0	0	0	0
0.368	-309.37589041	533.55896967	0	-2.30886306	0	0	1.36434757	-2.24868126	0	0	0	0	0	0	0	0	0	0
0.369	-368.05170616	638.88188797	0	-2.31161328	0	0	1.74055626	-2.98553241	0	0	0	0	0	0	0	0	0	0
0.37	-426.22081768	750.01566411	0	-2.31361474	0	0	2.17699802	-3.87330746	0	0	0	0	0	0	0	0	0	0
0.371	-480.42168274	864.10764561	0	-2.3150372	0	0	2.63560658	-4.85303098	0	0	0	0	0	0	0	0	0	0
0.372	-526.82470844	978.67403975	0	-2.31602462	0	0	3.06974027	-5.84996453	0	0	0	0	0	0	0	0	0	0
0.373	-561.85350772	1091.41719079	0	-2.31675755	0	0	3.42970513	-6.77724278	0	0	0	0	0	0	0	0	0	0
0.374	-581.98192546	1200.7229736	0	-2.31736488	0	0	3.67217594	-7.55782884	0	0	0	0	0	0	0	0	0	0
0.375	-585.57960887	1305.77101206	0	-2.31795982	0	0	3.7727094	-8.13105921	0	0	0	0	0	0	0	0	0	0
0.376	-571.4906183000001	1405.98981621	0	-2.31861385	0	0	3.71513486	-8.43805693	0	0	0	0	0	0	0	0	0	0
0.377	-541.3523431900001	1501.35745976	0	-2.31936939	0	0	3.51029186	-8.456914429999999	0	0	0	0	0	0	0	0	0	0
0.378	-496.98094862	1591.66322351	0	-2.32024607	0	0	3.17285535	-8.180730759999999	0	0	0	0	0	0	0	0	0	0
0.379	-442.43274171	1677.22699214	0	-2.32122575	0	0	2.73937161	-7.65570167	0	0	0	0	0	0	0	0	0	0
0.38	-381.34083156	1758.18386462	0	-2.32226644	0	0	2.24256522	-6.92199992	0	0	0	0	0	0	0	0	0	0
0.381	-318.25560798	1835.18538963	0	-2.3232917	0	0	1.72294073	-6.03753833	0	0	0	0	0	0	0	0	0	0
0.382	-257.04638423	1908.57040743	0	-2.32421515	0	0	1.21288302	-5.03052494	0	0	0	0	0	0	0	0	0	0
0.383	-201.1723056	1978.82171117	0	-2.32495337	0	0	0.7393140499999999	-3.91590982	0	0	0	0	0	0	0	0	0	0
0.384	-153.50828266	2045.86548149	0	-2.32542698	0	0	0.3216657	-2.67587723	0	0	0	0	0	0	0	0	0	0
0.385	-115.53406714	2109.62561169	0	-2.32558876	0	0	-0.03249661	-1.28843075	0	0	0	0	0	0	0	0	0	0
0.386	-88.46643158000001	2169.57046357	0	-2.3253845	0	0	-0.31870599	0.28097376	0	0	0	0	0	0	0	0	0	0
0.387	-71.81412647000001	2225.30793969	0	-2.3248026	0	0	-0.54420537	2.04318488	0	0	0	0	0	0	0	0	0	0
0.388	-65.30689885	2275.99315266	0	-2.32381545	0	0	-0.71507358	4.00136465	0	0	0	0	0	0	0	0	0	0
0.389	-67.28831938	2321.06999879	0	-2.3224436	0	0	-0.84497834	6.10939542	0	0	0	0	0	0	0	0	0	0
0.39	-76.64433044	2359.53288895	0	-2.32068584	0	0	-0.94338857	8.30401623	0	0	0	0	0	0	0	0	0	0
0.391	-91.35081648000001	2391.00363417	0	-2.31858458	0	0	-1.02183942	10.48360129	0	0	0	0	0	0	0	0	0	0
0.392	-109.96359903	2414.68421321	0	-2.31615473	0	0	-1.08684576	12.5377697	0	0	0	0	0	0	0	0	0	0
0.393	-130.64687335	2430.73505305	0	-2.31344864	0	0	-1.14385108	14.36089859	0	0	0	0	0	0	0	0	0	0
0.394	-152.03654824	2438.96225969	0	-2.31049641	0	0	-1.19481704	15.85017258	0	0	0	0	0	0	0	0	0	0
0.395	-172.80953731	2440.27496319	0	-2.30736295	0	0	-1.24059727	16.95610653	0	0	0	0	0	0	0	0	0	0
0.396	-191.89739527	2435.20190138	0	-2.30409942	0	0	-1.27993931	17.62788023	0	0	0	0	0	0	0	0	0	0
0.397	-208.55011066	2425.21970522	0	-2.30077798	0	0	-1.31109368	17.88560088	0	0	0	0	0	0	0	0	0	0
0.398	-222.05447493	2411.42592459	0	-2.29746155	0	0	-1.33100871	17.73495988	0	0	0	0	0	0	0	0	0	0
0.399	-232.17217803	2395.46754036	0	-2.2942122	0	0	-1.33728082	17.24286839	0	0	0	0	0	0	0	0	0	0
0.4	-238.52709022	2378.61217878	0	-2.29108636	0	0	-1.32648613	16.45017694	0	0	0	0	0	0	0	0	0	0
0.401	-241.26109664	2362.145317	0	-2.28812508	0	0	-1.29731244	15.43711639	0	0	0	0	0	0	0	0	0	0
0.402	-240.24689487	2347.07333097	0	-2.28537692	0	0	-1.24739625	14.25354777	0	0	0	0	0	0	0	0	0	0
0.403	-235.82497818	2334.04047429	0	-2.28286187	0	0	-1.1773854	12.96338167	0	0	0	0	0	0	0	0	0	0
0.404	-228.00036578	2323.57617743	0	-2.28061096	0	0	-1.08695866	11.60556421	0	0	0	0	0	0	0	0	0	0
0.405	-217.18891195	2315.70327022	0	-2.27861193	0	0	-0.97941625	10.22136684	0	0	0	0	0	0	0	0	0	0
0.406	-203.48765295	2310.47198785	0	-2.2768656	0	0	-0.85735488	8.83847325	0	0	0	0	0	0	0	0	0	0
0.407	-187.34614042	2307.42942373	0	-2.27533578	0	0	-0.7262866	7.47903202	0	0	0	0	0	0	0	0	0	0
0.408	-168.92730218	2306.25677345	0	-2.27400893	0	0	-0.59114327	6.16311134	0	0	0	0	0	0	0	0	0	0
0.409	-148.67951083	2306.34707576	0	-2.27284892	0	0	-0.457986	4.9078318	0	0	0	0	0	0	0	0	0	0
0.41	-126.81609496	2307.30012594	0	-2.27184514	0	0	-0.33246745	3.73818069	0	0	0	0	0	0	0	0	0	0
0.411	-103.75311978	2308.63539945	0	-2.27096841	0	0	-0.21888114	2.67497214	0	0	0	0	0	0	0	0	0	0
0.412	-79.72777945999999	2309.98050325	0	-2.27020724	0	0	-0.12132547	1.75293877	0	0	0	0	0	0	0	0	0	0
0.413	-55.08734181	2310.94496274	0	-2.26953759	0	0	-0.04090186	0.98685725	0	0	0	0	0	0	0	0	0	0
0.414	-30.05360721	2311.13162685	0	-2.26894972	0	0	0.02040389	0.39463543	0	0	0	0	0	0	0	0	0	0
0.415	-4.87197793	2310.26877657	0	-2.26842639	0	0	0.06354385999999999	-0.04426792	0	0	0	0	0	0	0	0	0	0
0.416	20.29343278	2308.072558	0	-2.26796108	0	0	0.08761834	-0.34744215	0	0	0	0	0	0	0	0	0	0
0.417	45.30288552	2304.49924236	0	-2.26753744	0	0	0.09421092	-0.56346587	0	0	0	0	0	0	0	0	0	0
0.418	70.02869274	2299.40760321	0	-2.26714383	0	0	0.0827087	-0.73308242	0	0	0	0	0	0	0	0	0	0
0.419	94.38231822	2292.89566968	0	-2.26676484	0	0	0.0554844	-0.89965713	0	0	0	0	0	0	0	0	0	0
0.42	118.23461976	2284.90863075	0	-2.26639123	0	0	0.01406956	-1.08700519	0	0	0	0	0	0	0	0	0	0
0.421	141.51412362	2275.62158894	0	-2.26601812	0	0	-0.03703784	-1.30204299	0	0	0	0	0	0	0	0	0	0
0.422	164.08328531	2265.06454939	0	-2.265646	0	0	-0.09441811999999999	-1.54265201	0	0	0	0	0	0	0	0	0	0
0.423	185.90977504	2253.43375532	0	-2.26527719	0	0	-0.15329568	-1.79332055	0	0	0	0	0	0	0	0	0	0
0.424	206.90306631	2240.72043738	0	-2.26491411	0	0	-0.20977112	-2.0363217	0	0	0	0	0	0	0	0	0	0
0.425	227.11949012	2226.97301049	0	-2.2645565	0	0	-0.26139535	-2.25762019	0	0	0	0	0	0	0	0	0	0
0.426	246.54642159	2211.98381312	0	-2.26420426	0	0	-0.30723299	-2.44982462	0	0	0	0	0	0	0	0	0	0
